<?xml version="1.0" encoding="utf-8"?>
<!-- Generator: Adobe Illustrator 23.0.4, SVG Export Plug-In . SVG Version: 6.00 Build 0)  -->
<svg version="1.1" id="Ebene_1" xmlns="http://www.w3.org/2000/svg" xmlns:xlink="http://www.w3.org/1999/xlink" x="0px" y="0px"
	 viewBox="0 0 148 30" style="enable-background:new 0 0 148 30;" xml:space="preserve">
<style type="text/css">
	.st0{fill:url(#Combined-Shape_1_);}
	.st1{clip-path:url(#SVGID_2_);}
	.st2{opacity:0;clip-path:url(#SVGID_4_);}
	.st3{opacity:0;}
	.st4{clip-path:url(#SVGID_4_);}
</style>
<title>visaya-logo</title>
<desc>Created with Sketch.</desc>
<g id="Page-1">
	<g id="visaya-logo">
		
			<linearGradient id="Combined-Shape_1_" gradientUnits="userSpaceOnUse" x1="58.5987" y1="29.5" x2="59.5987" y2="29.5" gradientTransform="matrix(147.0276 0 0 -29.8581 -8615.6279 895.7428)">
			<stop  offset="0" style="stop-color:#FC3F2B"/>
			<stop  offset="1" style="stop-color:#FC2845"/>
		</linearGradient>
		<path id="Combined-Shape" class="st0" d="M22,11.1c-0.9-0.5-2-0.2-2.4,0.7l-3.2,5.7l-4.9,8.5c-0.2,0.3-0.5,0.4-0.6,0.4
			c-0.2,0-0.5,0-0.6-0.4L3.7,14.5c-0.2-0.3-0.1-0.6,0-0.7c0.1-0.1,0.3-0.4,0.6-0.4h3.4c1,0,1.8-0.8,1.8-1.8c0-1-0.8-1.8-1.8-1.8H4.3
			c-1.6,0-3,0.8-3.7,2.2c-0.8,1.4-0.8,3,0,4.4l6.5,11.4c0.8,1.4,2.2,2.2,3.7,2.2c1.6,0,3-0.8,3.7-2.2l4.9-8.5l3.2-5.7
			C23.2,12.7,22.9,11.6,22,11.1z M31.4,13.5L24.9,2.2C24.1,0.8,22.7,0,21.1,0c-1.6,0-3,0.8-3.7,2.2l-4.9,8.5l-3.2,5.7
			c-0.5,0.9-0.2,2,0.7,2.5c0.3,0.2,0.6,0.2,0.9,0.2c0.6,0,1.2-0.3,1.6-0.9l3.2-5.7L20.5,4c0.2-0.3,0.5-0.4,0.6-0.4s0.5,0,0.6,0.4
			l6.5,11.4c0.2,0.3,0.1,0.6,0,0.7c-0.1,0.1-0.3,0.4-0.6,0.4h-3.9c-1,0-1.8,0.8-1.8,1.8c0,1,0.8,1.8,1.8,1.8h3.9
			c1.6,0,3-0.8,3.7-2.2S32.2,14.9,31.4,13.5z M68.2,4.9c-0.8,0-1.4,0.6-1.4,1.4v12.1c0,0.8,0.6,1.4,1.4,1.4h0.5
			c0.8,0,1.4-0.6,1.4-1.4V6.3c0-0.8-0.6-1.4-1.4-1.4H68.2z M58,5.9l-3.9,10c-0.3,0.7-0.9,0.8-1.1,0.8s-0.8-0.1-1.1-0.8l-3.9-10
			c-0.3-0.6-0.9-1.1-1.5-1.1c-1.2,0-2,1.2-1.5,2.3l3.9,10c0.7,1.8,2.4,2.9,4.2,2.9c1.9,0,3.5-1.2,4.2-3l3.9-9.9
			c0.4-1.1-0.4-2.3-1.5-2.3C58.8,4.8,58.2,5.3,58,5.9z M125.1,6l-3.2,8.3c-0.5,1.3-1.7,1.4-2.1,1.4c-0.4,0-1.5-0.1-2.1-1.4L114.5,6
			c-0.2-0.6-0.9-1-1.5-1c-1.2,0-2,1.2-1.5,2.3l3.2,8.3c0.8,2.1,2.8,3.5,5.1,3.5c0.1,0,0.1,0,0.2,0l-1.2,3.1
			c-0.4,1.1,0.4,2.3,1.5,2.3c0.7,0,1.3-0.4,1.5-1l3.1-7.8l0,0l3.2-8.3c0.4-1.1-0.4-2.3-1.5-2.3C126,4.9,125.4,5.3,125.1,6z
			 M75.6,9.3c0,3.4,3.2,4.2,5.2,4.8c2.1,0.6,2.7,0.9,2.7,1.4c0,0.7-0.8,1.2-1.9,1.2c-1.3,0-3-0.6-3.5-0.9l0,0
			c-0.8-0.4-1.8,0-2.1,0.8l0,0c-0.4,0.8,0,1.8,0.8,2.2l0,0c0.3,0.1,2.6,1.2,4.8,1.2c2.9,0,5.1-1.9,5.1-4.5c0-3.2-3-4-5.1-4.6
			c-2.3-0.6-2.8-0.9-2.8-1.6c0-0.7,0.8-1.2,1.9-1.2c1.7,0,3.4,0.8,3.5,0.8C85,9.3,86,9,86.4,8.2l0,0c0.4-0.8,0.1-1.8-0.7-2.2l0,0
			c-0.1,0-2.4-1.2-4.9-1.2C77.8,4.8,75.6,6.7,75.6,9.3z M99.6,4.8c-2,0-3.9,0.8-5.4,2.2c-1.4,1.4-2.2,3.4-2.2,5.4c0,2,0.8,4,2.2,5.4
			c1.4,1.4,3.3,2.2,5.4,2.2c1,0,1.9-0.3,2.7-0.8c0.8-0.5,1-1.5,0.5-2.3c-0.5-0.8-1.5-1-2.3-0.5c-0.3,0.2-0.6,0.3-1,0.3
			c-1.1,0-2.2-0.4-3-1.3c-0.8-0.8-1.3-1.9-1.3-3.1c0-1.2,0.4-2.2,1.3-3.1c0.8-0.8,1.9-1.3,3-1.3h3.5c0.4,0,0.7,0.3,0.7,0.8v9.5
			c0,0.9,0.7,1.7,1.6,1.7c0.9,0,1.6-0.7,1.6-1.7V8.9c0-2.2-1.8-4.1-4-4.1H99.6z M139.5,4.8c-2,0-3.9,0.8-5.4,2.2
			c-1.4,1.4-2.2,3.4-2.2,5.4c0,2,0.8,4,2.2,5.4c1.4,1.4,3.3,2.2,5.4,2.2c1,0,1.9-0.3,2.7-0.8c0.8-0.5,1-1.5,0.5-2.3
			c-0.5-0.8-1.5-1-2.3-0.5c-0.3,0.2-0.6,0.3-1,0.3c-1.1,0-2.2-0.4-3-1.3c-0.8-0.8-1.3-1.9-1.3-3.1c0-1.2,0.4-2.2,1.3-3.1
			c0.8-0.8,1.9-1.3,3-1.3h3.5c0.4,0,0.7,0.3,0.7,0.8v9.5c0,0.9,0.7,1.7,1.6,1.7c0.9,0,1.6-0.7,1.6-1.7V8.9c0-2.2-1.8-4.1-4-4.1
			H139.5z"/>
	</g>
</g>
<g>
	<defs>
		<path id="SVGID_1_" d="M-483.5-1366.2c-2,0-3.9,0.8-5.4,2.2c-1.4,1.4-2.2,3.4-2.2,5.4s0.8,4,2.2,5.4c1.4,1.4,3.3,2.2,5.4,2.2
			c1,0,1.9-0.3,2.7-0.8c0.8-0.5,1-1.5,0.5-2.3c-0.5-0.8-1.5-1-2.3-0.5c-0.3,0.2-0.6,0.3-1,0.3c-1.1,0-2.2-0.4-3-1.3
			c-0.8-0.8-1.3-1.9-1.3-3.1c0-1.2,0.4-2.2,1.3-3.1c0.8-0.8,1.9-1.3,3-1.3h3.5c0.4,0,0.7,0.3,0.7,0.8v9.5c0,0.9,0.7,1.7,1.6,1.7
			c0.9,0,1.6-0.7,1.6-1.7v-9.3c0-2.2-1.8-4.1-4-4.1H-483.5z M-523.4-1366.2c-2,0-3.9,0.8-5.4,2.2c-1.4,1.4-2.2,3.4-2.2,5.4
			s0.8,4,2.2,5.4c1.4,1.4,3.3,2.2,5.4,2.2c1,0,1.9-0.3,2.7-0.8s1-1.5,0.5-2.3c-0.5-0.8-1.5-1-2.3-0.5c-0.3,0.2-0.6,0.3-1,0.3
			c-1.1,0-2.2-0.4-3-1.3c-0.8-0.8-1.3-1.9-1.3-3.1c0-1.2,0.4-2.2,1.3-3.1c0.8-0.8,1.9-1.3,3-1.3h3.5c0.4,0,0.7,0.3,0.7,0.8v9.5
			c0,0.9,0.7,1.7,1.6,1.7c0.9,0,1.6-0.7,1.6-1.7v-9.3c0-2.2-1.8-4.1-4-4.1H-523.4z M-547.4-1361.7c0,3.4,3.2,4.2,5.2,4.8
			c2.1,0.6,2.7,0.9,2.7,1.4c0,0.7-0.8,1.2-1.9,1.2c-1.3,0-3-0.6-3.5-0.9c-0.8-0.4-1.8,0-2.1,0.8c-0.4,0.8,0,1.8,0.8,2.2
			c0.3,0.1,2.6,1.2,4.8,1.2c2.9,0,5.1-1.9,5.1-4.5c0-3.2-3-4-5.1-4.6c-2.3-0.6-2.8-0.9-2.8-1.6c0-0.7,0.8-1.2,1.9-1.2
			c1.7,0,3.4,0.8,3.5,0.8c0.8,0.4,1.8,0.1,2.2-0.7c0.4-0.8,0.1-1.8-0.7-2.2c-0.1,0-2.4-1.2-4.9-1.2
			C-545.2-1366.2-547.4-1364.3-547.4-1361.7z M-497.9-1365l-3.2,8.3c-0.5,1.3-1.7,1.4-2.1,1.4c-0.4,0-1.5-0.1-2.1-1.4l-3.2-8.3
			c-0.2-0.6-0.9-1-1.5-1c-1.2,0-2,1.2-1.5,2.3l3.2,8.3c0.8,2.1,2.8,3.5,5.1,3.5c0.1,0,0.1,0,0.2,0l-1.2,3.1
			c-0.4,1.1,0.4,2.3,1.5,2.3c0.7,0,1.3-0.4,1.5-1l3.1-7.8l3.2-8.3c0.4-1.1-0.4-2.3-1.5-2.3C-497-1366.1-497.6-1365.7-497.9-1365z
			 M-565-1365.1l-3.9,10c-0.3,0.7-0.9,0.8-1.1,0.8s-0.8-0.1-1.1-0.8l-3.9-10c-0.3-0.6-0.9-1.1-1.5-1.1c-1.2,0-2,1.2-1.5,2.3l3.9,10
			c0.7,1.8,2.4,2.9,4.2,2.9c1.9,0,3.5-1.2,4.2-3l3.9-9.9c0.4-1.1-0.4-2.3-1.5-2.3C-564.2-1366.2-564.8-1365.7-565-1365.1z
			 M-554.8-1366.1c-0.8,0-1.4,0.6-1.4,1.4v12.1c0,0.8,0.6,1.4,1.4,1.4h0.5c0.8,0,1.4-0.6,1.4-1.4v-12.1c0-0.8-0.6-1.4-1.4-1.4
			H-554.8z M-591.6-1357.5l-6.5-11.3c-0.8-1.4-2.2-2.2-3.8-2.2c-1.6,0-3,0.8-3.7,2.2l-4.9,8.5l-3.2,5.7c-0.5,0.9-0.2,2,0.7,2.5
			c0.3,0.2,0.6,0.2,0.9,0.2c0.6,0,1.2-0.3,1.6-0.9l3.2-5.7l4.8-8.5c0.2-0.3,0.5-0.4,0.6-0.4c0.1,0,0.5,0,0.6,0.4l6.5,11.4
			c0.2,0.3,0.1,0.6,0,0.7c-0.1,0.1-0.3,0.4-0.6,0.4h-3.9c-1,0-1.8,0.8-1.8,1.8s0.8,1.8,1.8,1.8h3.9c1.6,0,3-0.8,3.7-2.2
			S-590.8-1356.1-591.6-1357.5z M-601-1359.9c-0.9-0.5-2-0.2-2.4,0.7l-3.2,5.7l-4.9,8.5c-0.2,0.3-0.5,0.4-0.6,0.4
			c-0.2,0-0.5,0-0.6-0.4l-6.6-11.5c-0.2-0.3-0.1-0.6,0-0.7c0.1-0.1,0.3-0.4,0.6-0.4h3.4c1,0,1.8-0.8,1.8-1.8s-0.8-1.8-1.8-1.8h-3.4
			c-1.6,0-3,0.8-3.7,2.2c-0.8,1.4-0.8,3,0,4.4l6.5,11.4c0.8,1.4,2.2,2.2,3.7,2.2c1.6,0,3-0.8,3.7-2.2l4.9-8.5l3.2-5.7
			C-599.8-1358.3-600.1-1359.4-601-1359.9z"/>
	</defs>
	<clipPath id="SVGID_2_">
		<use xlink:href="#SVGID_1_"  style="overflow:visible;"/>
	</clipPath>
	<g class="st1">
		<defs>
			<rect id="SVGID_3_" x="-647" y="-1427" width="1440" height="2900"/>
		</defs>
		<clipPath id="SVGID_4_">
			<use xlink:href="#SVGID_3_"  style="overflow:visible;"/>
		</clipPath>
		<g class="st2">
			<g class="st3">
				<g>
					<defs>
						<rect id="SVGID_5_" x="-647" y="-1427" width="1440" height="2900"/>
					</defs>
					<clipPath id="SVGID_6_">
						<use xlink:href="#SVGID_5_"  style="overflow:visible;"/>
					</clipPath>
					<g style="clip-path:url(#SVGID_6_);">
						
							<image style="overflow:visible;" width="6001" height="12084" xlink:href="3E0F870C3A624D9C.jpg"  transform="matrix(0.24 0 0 0.24 -647.04 -1427.04)">
						</image>
					</g>
				</g>
			</g>
		</g>
		<g class="st4">
			<g>
				<defs>
					<rect id="SVGID_7_" x="-647" y="-1427" width="1440" height="2900"/>
				</defs>
				<clipPath id="SVGID_8_">
					<use xlink:href="#SVGID_7_"  style="overflow:visible;"/>
				</clipPath>
				<g style="clip-path:url(#SVGID_8_);">
					
						<image style="overflow:visible;" width="6001" height="12084" xlink:href="3E0F870C3A624D9D.jpg"  transform="matrix(0.24 0 0 0.24 -647.04 -1427.04)">
					</image>
				</g>
			</g>
		</g>
	</g>
</g>
</svg>
